<svg width="960" height="280" viewBox="0 0 960 280" fill="none" xmlns="http://www.w3.org/2000/svg">
  <defs>
    <linearGradient id="g1" x1="52" y1="44" x2="212" y2="212" gradientUnits="userSpaceOnUse">
      <stop stop-color="#2E7D67"/>
      <stop offset="1" stop-color="#66C7A3"/>
    </linearGradient>
    <linearGradient id="g2" x1="0" y1="0" x2="1" y2="1">
      <stop stop-color="#F4B24C"/>
      <stop offset="1" stop-color="#FFDB84"/>
    </linearGradient>
    <filter id="shadow" x="0" y="0" width="960" height="280" filterUnits="userSpaceOnUse" color-interpolation-filters="sRGB">
      <feDropShadow dx="0" dy="12" stdDeviation="12" flood-color="#20333A" flood-opacity="0.12"/>
    </filter>
  </defs>

  <g filter="url(#shadow)">
    <rect x="24" y="24" width="224" height="224" rx="54" fill="url(#g1)"/>
    <rect x="54" y="54" width="164" height="164" rx="34" fill="#FFFDF8" fill-opacity="0.14"/>
    <path d="M88 96H184V126H118V156H166V186H88V96Z" fill="#FFFDF8"/>
    <path d="M164 96H192V128H164V96Z" fill="#FFFDF8"/>
    <path d="M164 154H192V186H164V154Z" fill="#FFFDF8"/>
    <path d="M745.02 48.66L754.559 68.6838L776.598 71.8877L760.647 87.4438L764.412 109.397L744.706 99.2741L725.005 109.407L728.759 87.4516L712.801 71.9031L734.839 68.6887L744.368 48.66H745.02Z" fill="url(#g2)"/>
    <circle cx="713" cy="126" r="9" fill="#F4B24C"/>
    <circle cx="786" cy="122" r="7" fill="#F4B24C"/>
  </g>

  <text x="286" y="124" fill="#223038" style="font: 900 84px 'Avenir Next', 'SF Pro Rounded', Arial, sans-serif; letter-spacing: -3px;">Rätselwelt</text>
  <text x="290" y="172" fill="#5E6E73" style="font: 700 28px 'Avenir Next', 'SF Pro Rounded', Arial, sans-serif; letter-spacing: 0.5px;">Finger · Kopf · Spass</text>
  <text x="290" y="212" fill="#2E7D67" style="font: 800 24px 'Avenir Next', 'SF Pro Rounded', Arial, sans-serif; letter-spacing: 2px; text-transform: uppercase;">Tablet-Rätselbuch</text>
</svg>
